<svg width="26" height="26" viewBox="0 0 26 26" fill="none" xmlns="http://www.w3.org/2000/svg">
<g clip-path="url(#clip0_404_1647)">
<path d="M13 26C20.1797 26 26 20.1797 26 13C26 5.8203 20.1797 0 13 0C5.8203 0 0 5.8203 0 13C0 20.1797 5.8203 26 13 26Z" fill="#EF0027"/>
<path d="M17.8197 8.05433L6.09375 5.89633L12.2647 21.4248L20.8634 10.9485L17.8197 8.05433ZM17.6313 9.00495L19.4253 10.7104L14.5194 11.5985L17.6313 9.00495ZM13.4534 11.4205L8.28263 7.13214L16.7343 8.68727L13.4534 11.4205ZM13.0853 12.1794L12.2419 19.1506L7.696 7.7082L13.0853 12.1794ZM13.8653 12.5491L19.2985 11.566L13.0666 19.1571L13.8653 12.5491Z" fill="white"/>
</g>
<defs>
<clipPath id="clip0_404_1647">
<rect width="26" height="26" fill="white"/>
</clipPath>
</defs>
</svg>
