<svg width="26" height="26" viewBox="0 0 26 26" fill="none" xmlns="http://www.w3.org/2000/svg">
<path d="M13 26C20.1797 26 26 20.1797 26 13C26 5.8203 20.1797 0 13 0C5.8203 0 0 5.8203 0 13C0 20.1797 5.8203 26 13 26Z" fill="#26A17B"/>
<path fill-rule="evenodd" clip-rule="evenodd" d="M14.5625 14.1236V14.122C14.4732 14.1285 14.0125 14.1561 12.9847 14.1561C12.164 14.1561 11.5864 14.1317 11.3832 14.122V14.1244C8.22424 13.9855 5.86636 13.4354 5.86636 12.7773C5.86636 12.12 8.22424 11.5699 11.3832 11.4285V13.5768C11.5896 13.5914 12.1811 13.6263 12.9985 13.6263C13.9792 13.6263 14.4707 13.5857 14.5625 13.5776V11.4302C17.715 11.5707 20.0672 12.1208 20.0672 12.7773C20.0672 13.4354 17.715 13.9838 14.5625 14.1236ZM14.5625 11.2067V9.28435H18.9614V6.35285H6.98436V9.28435H11.3832V11.2059C7.80824 11.37 5.11967 12.0785 5.11967 12.9268C5.11967 13.775 7.80824 14.4827 11.3832 14.6477V20.808H14.5625V14.646C18.1319 14.4819 20.8139 13.7742 20.8139 12.9268C20.8139 12.0793 18.1319 11.3717 14.5625 11.2067Z" fill="white"/>
</svg>
